# xmcd CD database file
#
# Track frame offsets:
#	225
#	12741
#	26258
#	39412
#	52191
#	66284
#	79694
#	93199
#	106110
#	118517
#	130938
#	142823
#	157896
#	172248
#	186070
#	199399
#	212313
#	224753
#	236788
#	248474
#	261628
#	273998
#	288928
#	303105
#
# Disc length: 4219 seconds
#
# Revision: 1
# Processed by: cddbd v1.5.2PL0 Copyright (c) Steve Scherf et al.
# Submitted via: CDex 1.70beta2
#
DISCID=59107818
DTITLE=Paul Carman Music - CD Metronome [CD2]
DYEAR=2000
DGENRE=Jazz
TTITLE0=150 bpm swing
TTITLE1=155 bpm swing
TTITLE2=160 bpm swing
TTITLE3=165 bpm swing
TTITLE4=170 bpm swing
TTITLE5=180 bpm swing
TTITLE6=190 bpm swing
TTITLE7=200 bpm swing
TTITLE8=210 bpm swing
TTITLE9=220 bpm swing
TTITLE10=230 bpm swing
TTITLE11=240 bpm swing
TTITLE12=250 bpm swing
TTITLE13=260 bpm swing
TTITLE14=270 bpm swing
TTITLE15=280 bpm swing
TTITLE16=290 bpm swing
TTITLE17=300 bpm swing
TTITLE18=310 bpm swing
TTITLE19=320 bpm swing
TTITLE20=340 bpm swing
TTITLE21=360 bpm swing
TTITLE22=380 bpm swing
TTITLE23=400 bpm swing
EXTD=YEAR: 2000
EXTT0=
EXTT1=
EXTT2=
EXTT3=
EXTT4=
EXTT5=
EXTT6=
EXTT7=
EXTT8=
EXTT9=
EXTT10=
EXTT11=
EXTT12=
EXTT13=
EXTT14=
EXTT15=
EXTT16=
EXTT17=
EXTT18=
EXTT19=
EXTT20=
EXTT21=
EXTT22=
EXTT23=
PLAYORDER=
